<?xml version="1.0" encoding="utf-8"?>
<!-- Generator: Adobe Illustrator 23.0.3, SVG Export Plug-In . SVG Version: 6.00 Build 0)  -->
<svg version="1.1" id="Слой_1" xmlns="http://www.w3.org/2000/svg" xmlns:xlink="http://www.w3.org/1999/xlink" x="0px" y="0px"
	 viewBox="0 0 24 24" style="enable-background:new 0 0 24 24;" xml:space="preserve">
<style type="text/css">
	.st0{fill:none;}
	.st1{fill:#FFFFFF;}
</style>
<path class="st0" d="M0,0h24v24H0V0z"/>
<path class="st1" d="M22.7,6V3.2c0-1.4-1.1-2.5-2.5-2.5H2.5C1.1,0.6,0,1.8,0,3.2v17.7c0,1.4,1.1,2.5,2.5,2.5h17.7
	c1.4,0,2.5-1.1,2.5-2.5V18c0.7-0.4,1.3-1.2,1.3-2.2V8.2C24,7.3,23.5,6.5,22.7,6z M21.5,8.2v7.6h-8.8V8.2H21.5z M2.5,20.8V3.2h17.7
	v2.5h-7.6c-1.4,0-2.5,1.1-2.5,2.5v7.6c0,1.4,1.1,2.5,2.5,2.5h7.6v2.5H2.5z"/>
<circle class="st1" cx="16" cy="12" r="1.5"/>
</svg>
