<?xml version="1.0" encoding="utf-8"?>
<!-- Generator: Adobe Illustrator 23.0.3, SVG Export Plug-In . SVG Version: 6.00 Build 0)  -->
<svg version="1.1" id="Слой_1" focusable="false"
	 xmlns="http://www.w3.org/2000/svg" xmlns:xlink="http://www.w3.org/1999/xlink" x="0px" y="0px" viewBox="0 0 24 24"
	 style="enable-background:new 0 0 24 24;" xml:space="preserve">
<style type="text/css">
	.st0{fill:#FFFFFF;}
</style>
<path class="st0" d="M12.1,5.7c-3.4,0-6.2,2.7-6.2,6.2s2.7,6.2,6.2,6.2s6.2-2.7,6.2-6.2S15.5,5.7,12.1,5.7z M12.1,15.9
	c-2.2,0-4-1.8-4-4s1.8-4,4-4s4,1.8,4,4S14.3,15.9,12.1,15.9L12.1,15.9z M19.9,5.5c0,0.8-0.6,1.4-1.4,1.4c-0.8,0-1.4-0.6-1.4-1.4
	s0.6-1.4,1.4-1.4C19.2,4.1,19.9,4.7,19.9,5.5z M24,7c-0.1-1.9-0.5-3.6-1.9-5c-1.4-1.4-3.1-1.8-5-1.9c-2-0.1-7.9-0.1-9.9,0
	c-1.9,0.1-3.6,0.5-5,1.9S0.2,5,0.1,6.9c-0.1,2-0.1,7.9,0,9.9c0.1,1.9,0.5,3.6,1.9,5c1.4,1.4,3.1,1.8,5,1.9c2,0.1,7.9,0.1,9.9,0
	c1.9-0.1,3.6-0.5,5-1.9c1.4-1.4,1.8-3.1,1.9-5C24.1,14.9,24.1,8.9,24,7L24,7z M21.4,19c-0.4,1-1.2,1.9-2.3,2.3
	c-1.6,0.6-5.3,0.5-7.1,0.5S6.6,21.9,5,21.3c-1-0.4-1.9-1.2-2.3-2.3c-0.6-1.6-0.5-5.3-0.5-7.1S2.1,6.4,2.7,4.8C3.1,3.8,3.9,3,5,2.5
	c1.6-0.6,5.3-0.5,7.1-0.5s5.5-0.1,7.1,0.5c1,0.4,1.9,1.2,2.3,2.3c0.6,1.6,0.5,5.3,0.5,7.1S22,17.4,21.4,19z"/>
</svg>
